<?xml version="1.0" encoding="UTF-8" standalone="no" ?>
<!DOCTYPE svg PUBLIC "-//W3C//DTD SVG 1.1//EN" "http://www.w3.org/Graphics/SVG/1.1/DTD/svg11.dtd">
<svg xmlns="http://www.w3.org/2000/svg" xmlns:xlink="http://www.w3.org/1999/xlink" version="1.1" width="1280" height="1024" viewBox="0 0 1280 1024" xml:space="preserve">
<desc>Created with Fabric.js 3.6.3</desc>
<defs>
</defs>
<g transform="matrix(1.9692780337941629 0 0 1.9692780337941629 640.0153846153846 512.012312418764)" id="background-logo"  >
<rect style="stroke: none; stroke-width: 1; stroke-dasharray: none; stroke-linecap: butt; stroke-dashoffset: 0; stroke-linejoin: miter; stroke-miterlimit: 4; fill: rgb(255,255,255); fill-rule: nonzero; opacity: 1;"  paint-order="stroke"  x="-325" y="-260" rx="0" ry="0" width="650" height="520" />
</g>
<g transform="matrix(1.992318134910746 0 0 1.992318134910746 690.9019680907622 426.8398692391922)" id="logo-logo"  >
<g style=""  paint-order="stroke"   >
		<g transform="matrix(0.5002097856294925 0.13403080810556753 -0.07143915387946093 0.2666145519278795 -92.67890586275769 38.3280555759321)"  >
<g style=""  paint-order="stroke"   >
		<g transform="matrix(1 0 0 1 0 0)"  >
<path style="stroke: none; stroke-width: 1; stroke-dasharray: none; stroke-linecap: butt; stroke-dashoffset: 0; stroke-linejoin: miter; stroke-miterlimit: 4; fill: rgb(145,22,125); fill-rule: nonzero; opacity: 1;"  paint-order="stroke"  transform=" translate(-100, -100)" d="M 200 100 A 100 100 0 0 1 100 200 A 100 100 0 0 1 0 100 A 100 100 0 0 1 100 0 A 100 100 0 0 1 200 100 Z" stroke-linecap="round" />
</g>
</g>
</g>
		<g transform="matrix(0.23395665113775907 -0.13507493551308872 0.2926623602783594 0.5069060774651449 -38.434273818659165 38.18916640761171)"  >
<g style=""  paint-order="stroke"   >
		<g transform="matrix(1 0 0 1 0 0)"  >
<path style="stroke: none; stroke-width: 1; stroke-dasharray: none; stroke-linecap: butt; stroke-dashoffset: 0; stroke-linejoin: miter; stroke-miterlimit: 4; fill: rgb(241,74,45); fill-rule: nonzero; opacity: 1;"  paint-order="stroke"  transform=" translate(-100, -100)" d="M 200 100 A 100 100 0 0 1 100 200 A 100 100 0 0 1 0 100 A 100 100 0 0 1 100 0 A 100 100 0 0 1 200 100 Z" stroke-linecap="round" />
</g>
</g>
</g>
		<g transform="matrix(0.4668679773210909 0 0 0.1043474711837043 4.6323328043066 136.4605528239233)"  >
<g style=""  paint-order="stroke"   >
		<g transform="matrix(1 0 0 1 0 0)"  >
<path style="stroke: none; stroke-width: 1; stroke-dasharray: none; stroke-linecap: butt; stroke-dashoffset: 0; stroke-linejoin: miter; stroke-miterlimit: 4; fill: rgb(146,22,125); fill-rule: nonzero; opacity: 1;"  paint-order="stroke"  transform=" translate(-100, -100)" d="M 200 100 A 100 100 0 0 1 100 200 A 100 100 0 0 1 0 100 A 100 100 0 0 1 100 0 A 100 100 0 0 1 200 100 Z" stroke-linecap="round" />
</g>
</g>
</g>
		<g transform="matrix(0.11989556671132762 -0.4474563465689393 0.06835829804192137 0.018316550756298792 108.33068621811663 17.947623867836285)"  >
<g style=""  paint-order="stroke"   >
		<g transform="matrix(1 0 0 1 0 0)"  >
<linearGradient id="SVGID_9_285363" gradientUnits="userSpaceOnUse" gradientTransform="matrix(1 0 0 1 0 0)"  x1="0" y1="0" x2="0" y2="200">
<stop offset="0%" style="stop-color:rgb(23,234,217);stop-opacity: 1"/>
<stop offset="100%" style="stop-color:rgb(96,120,234);stop-opacity: 1"/>
</linearGradient>
<path style="stroke: none; stroke-width: 1; stroke-dasharray: none; stroke-linecap: butt; stroke-dashoffset: 0; stroke-linejoin: miter; stroke-miterlimit: 4; fill: url(#SVGID_9_285363); fill-rule: nonzero; opacity: 1;"  paint-order="stroke"  transform=" translate(-100, -100)" d="M 200 100 A 100 100 0 0 1 100 200 A 100 100 0 0 1 0 100 A 100 100 0 0 1 100 0 A 100 100 0 0 1 200 100 Z" stroke-linecap="round" />
</g>
</g>
</g>
		<g transform="matrix(0.14544447465570995 -0.08397240659461791 0.3213195933104048 0.5565418610809888 100.03247585878091 -74.38280850012657)"  >
<g style=""  paint-order="stroke"   >
		<g transform="matrix(1 0 0 1 0 0)"  >
<linearGradient id="SVGID_9_285364" gradientUnits="userSpaceOnUse" gradientTransform="matrix(1 0 0 1 0 0)"  x1="0" y1="0" x2="0" y2="200">
<stop offset="0%" style="stop-color:rgb(23,234,217);stop-opacity: 1"/>
<stop offset="100%" style="stop-color:rgb(96,120,234);stop-opacity: 1"/>
</linearGradient>
<path style="stroke: none; stroke-width: 1; stroke-dasharray: none; stroke-linecap: butt; stroke-dashoffset: 0; stroke-linejoin: miter; stroke-miterlimit: 4; fill: url(#SVGID_9_285364); fill-rule: nonzero; opacity: 1;"  paint-order="stroke"  transform=" translate(-100, -100)" d="M 200 100 A 100 100 0 0 1 100 200 A 100 100 0 0 1 0 100 A 100 100 0 0 1 100 0 A 100 100 0 0 1 200 100 Z" stroke-linecap="round" />
</g>
</g>
</g>
		<g transform="matrix(0.17135047884726823 0 0 0.4517421715064349 -114.59392194744333 -43.625097983267665)"  >
<g style=""  paint-order="stroke"   >
		<g transform="matrix(1 0 0 1 0 0)"  >
<linearGradient id="SVGID_12_285365" gradientUnits="userSpaceOnUse" gradientTransform="matrix(1 0 0 1 0 0)"  x1="0" y1="0" x2="0" y2="200">
<stop offset="0%" style="stop-color:rgb(180,236,81);stop-opacity: 1"/>
<stop offset="100%" style="stop-color:rgb(66,147,33);stop-opacity: 1"/>
</linearGradient>
<path style="stroke: none; stroke-width: 1; stroke-dasharray: none; stroke-linecap: butt; stroke-dashoffset: 0; stroke-linejoin: miter; stroke-miterlimit: 4; fill: url(#SVGID_12_285365); fill-rule: nonzero; opacity: 1;"  paint-order="stroke"  transform=" translate(-100, -100)" d="M 200 100 A 100 100 0 0 1 100 200 A 100 100 0 0 1 0 100 A 100 100 0 0 1 100 0 A 100 100 0 0 1 200 100 Z" stroke-linecap="round" />
</g>
</g>
</g>
		<g transform="matrix(0.1329873872954383 -0.0767803038538464 0.23140456397544656 0.40080446190879565 -51.94054704237152 91.83862365745512)"  >
<g style=""  paint-order="stroke"   >
		<g transform="matrix(1 0 0 1 0 0)"  >
<path style="stroke: none; stroke-width: 1; stroke-dasharray: none; stroke-linecap: butt; stroke-dashoffset: 0; stroke-linejoin: miter; stroke-miterlimit: 4; fill: rgb(241,78,44); fill-rule: nonzero; opacity: 1;"  paint-order="stroke"  transform=" translate(-100, -100)" d="M 200 100 A 100 100 0 0 1 100 200 A 100 100 0 0 1 0 100 A 100 100 0 0 1 100 0 A 100 100 0 0 1 200 100 Z" stroke-linecap="round" />
</g>
</g>
</g>
		<g transform="matrix(0.23140960748704795 0 0 -0.2314096074870479 -37.67665804625733 85.6000284592534)"  >
<linearGradient id="SVGID_1_13_285366" gradientUnits="userSpaceOnUse" gradientTransform="matrix(224.203 214.164 214.164 -224.203 262.583 103.37)"  x1="0" y1="0" x2="1" y2="0">
<stop offset="0%" style="stop-color:rgb(241,78,44);stop-opacity: 1"/>
<stop offset="100%" style="stop-color:rgb(206,30,37);stop-opacity: 1"/>
</linearGradient>
<path style="stroke: none; stroke-width: 1; stroke-dasharray: none; stroke-linecap: butt; stroke-dashoffset: 0; stroke-linejoin: miter; stroke-miterlimit: 4; fill: url(#SVGID_1_13_285366); fill-rule: nonzero; opacity: 1;"  paint-order="stroke"  transform=" translate(-480.160015, -272.3535)" d="M 501.949 78.6992 C 596.516 5.01953 766.57 -10.8398 952.488 77.7109 C 861.145 28.1094 756.328 0 645.098 0 C 322.852 0 55.8164 236.109 7.83203 544.707 C 62.6406 389.109 253.785 468.418 325.461 427.461 C 447.133 357.988 347.949 198.16 501.949 78.6992" stroke-linecap="round" />
</g>
		<g transform="matrix(0.23140960748704795 0 0 -0.2314096074870479 0.46889818076357415 50.325406357184335)"  >
<linearGradient id="SVGID_2_14_285367" gradientUnits="userSpaceOnUse" gradientTransform="matrix(167.315 244.28 244.28 -167.315 427.001 301.823)"  x1="0" y1="0" x2="1" y2="0">
<stop offset="0%" style="stop-color:rgb(241,78,44);stop-opacity: 1"/>
<stop offset="100%" style="stop-color:rgb(238,32,54);stop-opacity: 1"/>
</linearGradient>
<path style="stroke: none; stroke-width: 1; stroke-dasharray: none; stroke-linecap: butt; stroke-dashoffset: 0; stroke-linejoin: miter; stroke-miterlimit: 4; fill: url(#SVGID_2_14_285367); fill-rule: nonzero; opacity: 1;"  paint-order="stroke"  transform=" translate(-645, -427.52672002824676)" d="M 1290 645.098 C 1290 400.559 1154.07 187.93 953.691 78.5117 c -0.398 -0.4023 -0.8 -0.6133 -1.203 -0.8008 C 766.57 -10.8398 596.516 5.01953 501.949 78.6992 C 347.949 198.16 447.133 357.988 325.461 427.461 C 253.785 468.418 62.6406 389.109 7.83203 544.707 C 7.63281 544.91 7.63281 544.91 7.63281 545.117 C 2.61328 577.637 0 611.172 0 645.098 C 0 712.156 10.2383 777.012 29.3164 837.848 C 11.043 736.855 36.7422 636.465 121.07 607.961 C 235.914 569.211 371.84 668.188 464.398 597.313 C 547.117 533.672 459.379 328.074 630.844 220.859 C 885.43 61.4414 1303.45 401.152 1276.35 777.613 C 1285.38 734.848 1290 690.473 1290 645.098" stroke-linecap="round" />
</g>
		<g transform="matrix(0.23140960748704795 0 0 -0.2314096074870479 1.7823013567006 -13.727544900199177)"  >
<linearGradient id="SVGID_285369" gradientUnits="userSpaceOnUse" gradientTransform="matrix(1 0 0 1 23.74616607080145 180.54187111264855)"  x1="0" y1="0" x2="0" y2="1053">
<stop offset="0%" style="stop-color:rgb(113,23,234);stop-opacity: 1"/>
<stop offset="100%" style="stop-color:rgb(234,96,96);stop-opacity: 1"/>
</linearGradient>
<path style="stroke: none; stroke-width: 1; stroke-dasharray: none; stroke-linecap: butt; stroke-dashoffset: 0; stroke-linejoin: miter; stroke-miterlimit: 4; fill: url(#SVGID_285369); fill-rule: nonzero; opacity: 1;"  paint-order="stroke"  transform=" translate(-650.6756639890613, -707.0609355563242)" d="m 1052.68 481.465 c 62.04 81.719 105.81 189.734 111.83 296.555 c 11.85 207 -118.46 375.85 -255.389 455.56 c 185.519 -83.32 324.459 -251.572 367.229 -455.56 c 0 0 0 -0.204 0 -0.407 C 1303.45 401.152 885.43 61.4414 630.844 220.859 C 459.379 328.074 547.117 533.672 464.398 597.313 C 371.84 668.188 235.914 569.211 121.07 607.961 C 36.7422 636.465 11.043 736.855 29.3164 837.848 c 19.875 63.847 49.5899 123.277 86.7346 176.682 c -45.7776 -107.417 -5.223 -210.612 55.414 -236.51 c 15.859 -6.829 33.129 -10.649 51.195 -12.254 c 105.012 -10.438 241.539 45.175 342.93 -34.532 c 125.289 -98.785 35.742 -314.625 202.39 -377.257 c 98.172 -36.946 205.997 24.089 284.7 127.488" stroke-linecap="round" />
</g>
		<g transform="matrix(0.23140960748704795 0 0 -0.2314096074870479 -2.813297570471377 -55.07386149720696)"  >
<path style="stroke: none; stroke-width: 1; stroke-dasharray: none; stroke-linecap: butt; stroke-dashoffset: 0; stroke-linejoin: miter; stroke-miterlimit: 4; fill: rgb(140,27,124); fill-rule: nonzero; opacity: 1;"  paint-order="stroke"  transform=" translate(-630.8165104427716, -885.7325000000001)" d="m 1164.51 778.02 c -6.02 -106.821 -49.79 -214.836 -111.83 -296.555 c 20.28 50.398 31.52 105.605 31.52 163.633 c 0 242.543 -196.563 439.102 -439.102 439.102 c -200.778 0 -370.032 -134.516 -422.438 -318.434 c -18.066 1.605 -35.336 5.425 -51.195 12.254 c -60.637 25.898 -101.1916 129.093 -55.414 236.51 c 116.855 166.65 310.199 275.47 529.047 275.47 c 94.172 0 183.515 -20.08 264.023 -56.42 c 136.929 -79.71 267.239 -248.56 255.389 -455.56" stroke-linecap="round" />
</g>
</g>
</g>
<g transform="matrix(1.9692780337941629 0 0 1.9692780337941629 540.5788954241908 804.0171062856587)" id="text-logo-path"  >
<path style="stroke: none; stroke-width: 0; stroke-dasharray: none; stroke-linecap: butt; stroke-dashoffset: 0; stroke-linejoin: miter; stroke-miterlimit: 4; fill: rgb(235,63,47); fill-rule: nonzero; opacity: 1;"  paint-order="stroke"  transform=" translate(-71.215, 14.274999999999999)" d="M 11.09 0 L 1.6 -28.57 L 8.94 -28.57 L 14.87 -10.03 L 21.37 -28.57 L 28.9 -28.57 L 34.7 -10.13 L 41.32 -28.57 L 48.73 -28.57 L 38 0 L 30.95 0 L 24.96 -18.6 L 18.23 0 L 11.09 0 Z M 48.6 -14.27 L 48.6 -14.27 Q 48.6 -17.27 49.76 -20 Q 50.92 -22.72 52.89 -24.71 Q 54.86 -26.7 57.59 -27.88 Q 60.31 -29.06 63.33 -29.06 L 63.33 -29.06 Q 66.3 -29.06 69.04 -27.88 Q 71.78 -26.7 73.75 -24.71 Q 75.71 -22.72 76.89 -19.98 Q 78.07 -17.25 78.07 -14.27 L 78.07 -14.27 Q 78.07 -11.28 76.9 -8.54 Q 75.74 -5.8 73.76 -3.82 Q 71.78 -1.85 69.04 -0.67 Q 66.3 0.51 63.33 0.51 L 63.33 0.51 Q 59.31 0.51 55.91 -1.48 Q 52.52 -3.47 50.56 -6.86 Q 48.6 -10.25 48.6 -14.27 Z M 54.9 -14.27 L 54.9 -14.27 Q 54.9 -10.79 57.37 -8.34 Q 59.84 -5.89 63.33 -5.89 L 63.33 -5.89 Q 66.77 -5.89 69.23 -8.34 Q 71.7 -10.79 71.7 -14.27 L 71.7 -14.27 Q 71.7 -17.72 69.23 -20.18 Q 66.77 -22.64 63.33 -22.64 L 63.33 -22.64 Q 59.84 -22.64 57.37 -20.19 Q 54.9 -17.74 54.9 -14.27 Z M 89.5 0 L 82.61 0 L 82.61 -28.57 L 96.41 -28.57 Q 100.78 -28.57 103.68 -25.52 Q 106.58 -22.48 106.58 -17.84 L 106.58 -17.84 Q 106.58 -14.79 105.21 -12.33 Q 103.83 -9.86 101.49 -8.61 L 101.49 -8.61 L 107.38 0 L 98.81 0 L 94.52 -7.1 L 89.5 -7.1 L 89.5 0 Z M 89.5 -22.17 L 89.5 -13.47 L 95.4 -13.47 Q 97.17 -13.47 98.41 -14.76 Q 99.65 -16.04 99.65 -17.84 L 99.65 -17.84 Q 99.65 -19.61 98.42 -20.89 Q 97.19 -22.17 95.44 -22.17 L 95.44 -22.17 L 89.5 -22.17 Z M 119.17 0 L 112.28 0 L 112.28 -28.57 L 119.17 -28.57 L 119.17 -16 L 130.08 -28.57 L 138.74 -28.57 L 128.91 -17.04 L 140.83 0 L 131.89 0 L 124.07 -11.79 L 119.17 -6.42 L 119.17 0 Z" stroke-linecap="round" />
</g>
<g transform="matrix(1.9692780337941629 0 0 1.9692780337941629 841.1543606287734 802.7125690142749)" id="tagline-fe42bde7-9242-4661-9ece-a9a983163c8a-logo-path"  >
<path style="stroke: rgb(255,255,255); stroke-width: 0; stroke-dasharray: none; stroke-linecap: butt; stroke-dashoffset: 0; stroke-linejoin: miter; stroke-miterlimit: 4; fill: rgb(140,27,124); fill-rule: nonzero; opacity: 1;"  paint-order="stroke"  transform=" translate(-76.22500000000001, 12.85)" d="M 7 -3.18 Q 3.4 -7.1 3.4 -12.8 Q 3.4 -18.5 7 -22.45 Q 10.6 -26.4 16.1 -26.4 L 16.1 -26.4 Q 16.45 -26.4 17.63 -26.43 Q 18.8 -26.45 19.73 -26.45 Q 20.65 -26.45 22.13 -26.43 Q 23.6 -26.4 24.75 -26.3 Q 25.9 -26.2 27.28 -26.05 Q 28.65 -25.9 29.68 -25.6 Q 30.7 -25.3 31.58 -24.93 Q 32.45 -24.55 32.9 -23.98 Q 33.35 -23.4 33.4 -22.7 L 33.4 -22.7 L 33.4 0 L 24.6 0 L 24.6 -2.9 Q 23.15 -1.25 20.9 -0.25 Q 18.65 0.75 16.1 0.75 L 16.1 0.75 Q 10.6 0.75 7 -3.18 Z M 12.8 -12.8 L 12.8 -12.8 Q 12.8 -11.5 13.23 -10.4 Q 13.65 -9.3 14.43 -8.5 Q 15.2 -7.7 16.32 -7.25 Q 17.45 -6.8 18.8 -6.8 L 18.8 -6.8 Q 20.5 -6.8 21.85 -7.58 Q 23.2 -8.35 23.95 -9.7 Q 24.7 -11.05 24.7 -12.8 L 24.7 -12.8 Q 24.7 -15.45 23 -17.15 Q 21.3 -18.85 18.8 -18.85 L 18.8 -18.85 Q 16.25 -18.85 14.53 -17.15 Q 12.8 -15.45 12.8 -12.8 Z M 39.35 -2.7 L 39.35 -2.7 L 42.95 -8.75 Q 44.7 -7.45 46.25 -6.75 L 46.25 -6.75 Q 47.75 -6 48.75 -5.9 L 48.75 -5.9 Q 49.1 -5.85 49.5 -5.85 L 49.5 -5.85 Q 50.05 -5.8 50.55 -6 L 50.55 -6 Q 51.35 -6.2 51.7 -6.65 Q 52.05 -7.1 52.05 -7.65 L 52.05 -7.65 Q 52.05 -8.55 51.25 -9.43 Q 50.45 -10.3 49.25 -10.98 Q 48.05 -11.65 46.63 -12.45 Q 45.2 -13.25 44 -14.03 Q 42.8 -14.8 41.98 -15.88 Q 41.15 -16.95 41.15 -18.15 L 41.15 -18.15 Q 41.15 -19.65 41.98 -21.23 Q 42.8 -22.8 44.5 -24.1 L 44.5 -24.1 Q 46.15 -25.35 48.45 -26.05 L 48.45 -26.05 Q 49.95 -26.5 51.95 -26.5 L 51.95 -26.5 Q 52.95 -26.5 54.05 -26.4 L 54.05 -26.4 Q 57.35 -26.05 60.95 -24.4 L 60.95 -24.4 L 58.05 -18.6 Q 56.15 -19.5 54.6 -19.9 Q 53.05 -20.3 52.15 -20.3 Q 51.25 -20.3 50.65 -20.03 Q 50.05 -19.75 49.85 -19.4 Q 49.65 -19.05 49.65 -18.65 L 49.65 -18.65 Q 49.65 -17.8 50.85 -16.95 Q 52.05 -16.1 53.8 -15.3 Q 55.55 -14.5 57.28 -13.55 Q 59 -12.6 60.23 -11.15 Q 61.45 -9.7 61.45 -8 L 61.45 -8 Q 61.45 -5.8 60.08 -3.88 Q 58.7 -1.95 56.35 -0.83 Q 54 0.3 51.2 0.7 L 51.2 0.7 Q 50.35 0.8 49.45 0.8 L 49.45 0.8 Q 47.45 0.8 45.25 0.2 L 45.25 0.2 Q 42.05 -0.65 39.35 -2.7 Z M 76.85 0 L 67.65 0 L 67.65 -26 L 74.65 -26 L 74.65 -24.55 Q 77.35 -26.4 81.85 -26.4 L 81.85 -26.4 Q 85.55 -26.4 87.58 -25.83 Q 89.6 -25.25 91.25 -23.05 L 91.25 -23.05 Q 92.15 -24 93.03 -24.65 Q 93.9 -25.3 94.65 -25.65 Q 95.4 -26 96.5 -26.18 Q 97.6 -26.35 98.4 -26.38 Q 99.2 -26.4 100.65 -26.4 L 100.65 -26.4 Q 107.95 -26.4 111.25 -23.58 Q 114.55 -20.75 114.55 -14.35 L 114.55 -14.35 L 114.55 0 L 105.75 0 L 105.75 -12.2 Q 105.75 -16 104.6 -17.6 Q 103.45 -19.2 100.65 -19.2 L 100.65 -19.2 Q 99.15 -19.2 98.15 -18.73 Q 97.15 -18.25 96.57 -17.25 Q 96 -16.25 95.75 -14.55 L 95.75 -14.55 L 95.75 0 L 86.75 0 L 86.75 -14.55 Q 86.5 -17.05 85.35 -18.13 Q 84.2 -19.2 81.85 -19.2 L 81.85 -19.2 Q 79.1 -19.2 77.97 -17.6 Q 76.85 -16 76.85 -12.2 L 76.85 -12.2 L 76.85 0 Z M 125.35 -3.23 Q 121.2 -7.2 121.2 -12.8 Q 121.2 -18.4 125.35 -22.4 Q 129.5 -26.4 135.3 -26.4 L 135.3 -26.4 Q 141.3 -26.4 145.18 -22.38 Q 149.05 -18.35 149.05 -11.35 L 149.05 -11.35 L 130.4 -11.35 Q 130.4 -9.75 131.47 -8.35 Q 132.55 -6.95 134.15 -6.25 L 134.15 -6.25 Q 135.05 -5.85 136.2 -5.85 L 136.2 -5.85 Q 137.05 -5.85 138 -6.1 L 138 -6.1 Q 140.2 -6.65 142.2 -8.65 L 142.2 -8.65 L 148.6 -5.95 Q 144.6 0.75 135.3 0.75 L 135.3 0.75 Q 129.5 0.75 125.35 -3.23 Z M 130.65 -15.85 L 130.65 -15.85 L 140.4 -15.85 Q 140.1 -17.95 138.78 -19.3 Q 137.45 -20.65 135.55 -20.65 L 135.55 -20.65 Q 133.4 -20.65 132.08 -19.2 Q 130.75 -17.75 130.65 -15.85 Z" stroke-linecap="round" />
</g>
</svg>